<?xml version="1.0" encoding="utf-8"?>
<!-- (c) ammap.com | SVG map of Canada -->
<svg xmlns="http://www.w3.org/2000/svg" xmlns:amcharts="../../../../../../../../../../../amcharts.com/ammap" xmlns:xlink="http://www.w3.org/1999/xlink" version="1.1">
	<defs>
		<style type="text/css">
			.land
			{
				fill: #CCCCCC;
				fill-opacity: 1;
				stroke:white;
				stroke-opacity: 1;
				stroke-width:0.5;
			}
		</style>

		<amcharts:ammap projection="mercator" leftLongitude="-141.007366" topLatitude="83.116658" rightLongitude="-52.646682" bottomLatitude="41.730628"></amcharts:ammap>

		<!-- All areas are listed in the line below. You can use this list in your script. -->
		<!--{id:"CA-AB"},{id:"CA-BC"},{id:"CA-MB"},{id:"CA-NB"},{id:"CA-NL"},{id:"CA-NS"},{id:"CA-NT"},{id:"CA-NU"},{id:"CA-ON"},{id:"CA-PE"},{id:"CA-QC"},{id:"CA-SK"},{id:"CA-YT"}-->

	</defs>
	<g>
		<path id="CA-AB" title="Alberta" class="land" d="M277.92,1131.52L241.5,1131.52L241.5,1131.52L241.55,1130.91L240.36,1129.13L238.88,1128.55L236.99,1126.04L236.88,1123.98L235.48,1123.38L236.3,1121.4L235.92,1118.58L236.22,1117.39L234.99,1112.65L233.16,1110.04L232.28,1109.48L231.25,1109.92L230.36,1108.78L229.99,1107.45L227.41,1105.66L227.83,1104.9L227.55,1104.14L225.98,1102.61L224.15,1101.76L223.76,1100.33L221.89,1099.01L221.35,1097.21L219.05,1094.3L218.09,1092.28L217.33,1092.31L216.69,1093.37L215.95,1093.39L214.83,1090.9L212.97,1088.56L212.3,1086.97L209.9,1087.18L208.44,1086.22L207.8,1085.28L208.61,1083.65L206.18,1082.15L205.66,1083.22L204.22,1083.61L204.19,1082.19L203.06,1080.12L203.24,1078.87L201.93,1076.36L200.55,1075.9L200.12,1074.17L199.33,1073.58L199,1072.27L197.3,1071.04L197.04,1072.48L194.9,1071.43L193.65,1069.29L191.14,1069.02L189.89,1067.21L189.23,1066.85L189.01,1065.39L190.58,1065.35L190.65,1065.07L189.96,1064.08L189.13,1063.72L188.26,1061.89L188.27,960.68L188.27,960.68L277.92,960.68L277.92,960.68z"/>
		<path id="CA-BC" title="British Columbia" class="land" 
d="M154.04,960.68h34.24l0,0l-0.01,101.21l0.87,1.83l0.83,0.37l0.69,0.98l-0.07,0.28l-1.57,0.04l0.22,1.46l028F870A1E"/>
		<path id="CA-MB" title="Manitoba" class="land" d="M466.63,1014.55L444.85,1039.15L424.75,1063.34L411.01,1077.19L410.99,1126.37L410.99,1126.37L410.93,1131.54L355.31,1131.52L355.31,1131.52L349.63,1031.23L349.62,960.68L349.62,960.68L414.43,960.67L414.43,960.67L414.28,973.66L413.55,976.8L412.77,977.13L414.39,977.97L415.31,980.58L416.16,980.61L417.59,982.74L418.78,983.24L418.37,990.41L418.91,989.04L419.48,984.79L420.25,982.89L420.85,982.48L423.32,982.27L425.96,982.75L427.82,982.55L428.71,983.08L429.42,987.13L435.4,1006.83L434.99,1008.73L433.77,1011.47L432.13,1013.39L435.19,1011.51L436.56,1011.36L436.09,1012.59L439.12,1011.06L447.25,1008.13L449.16,1007.88L451.9,1008.41L459.08,1012.42z"/>
		<path id="CA-NB" title="New Brunswick" class="land" 
d="M690.01,1170.96l-0.18,0.45l-0.97,0.17l-1.39,1.66l0,0l-1.5,0.38l-1.35,-1.8l0.35,1.71l-1.66,2.24l-1.070B7EAE8A3B"/>
		<path id="CA-NL" title="Newfoundland and Labrador" class="land" 
d="M752.14,1097.28l-0.01,-8.05l-59.67,-0.14l-0.26,-0.58l1.09,-0.14l-0.91,-3.46l-1.52,-1.22l-0.14,-0.7l-0517FC9A6C"/>
		<path id="CA-NS" title="Nova Scotia" class="land" 
d="M716.24,1171.84l2.15,-0.5l-0.03,0.45l-1.52,0.85l0.59,0.57l-1.08,1.15l0.3,0.58l1.15,-0.57l1.73,-0.05l050CDC4A2B"/>
		<path id="CA-NT" title="Northwest Territories" class="land" 
d="M277.88,449.94l0.01,16.42l0,0l-3.72,1.18l-3.02,-0.7l-3.71,-3.35l-0.54,0.44l-1.85,3.94l-0.74,0.56l-2.0BF717FACB"/>
		<path id="CA-NU" title="Nunavut" class="land" 
d="M641.08,201.13l7.31,1.33l2.37,-0.48l2.71,3.24l1.63,0.38l2.69,-0.61l1.96,0.77l7.3,0.72l1.52,1.25l-0.00656964A09"/>
		<path id="CA-ON" title="Ontario" class="land" 
d="M551.16,1104.76l0.06,46.05l-0.42,0.97l1.11,4.6l3.77,6.89l2.09,2.77l2.87,1.12l6.97,1.55l2.79,1.6l1.24014E190AE4"/>
		<path id="CA-PE" title="Prince Edward Island" class="land" d="M691.98,1165.07L692.64,1164.92L693.14,1163.86L695.16,1164.62L695.95,1164.56L698.09,1165.68L706.75,1164.83L708,1165.68L703.5,1168.51L703.34,1170.76L703.93,1171.13L703.45,1171.42L701,1171.47L700.34,1171.11L700.12,1170.25L699.05,1170.27L700.2,1169.54L699.67,1168.61L699.12,1168.68L698.75,1168.24L698.78,1167.65L699.44,1167.05L696.82,1168.55L697.88,1168.7L697.34,1169.07L693.5,1168.16L692.07,1166.39L692.45,1165.99L689.29,1165.63L689.07,1163.37L686.81,1162.84L686.67,1162.17L687.11,1161.16L690.34,1157.34L690.45,1159.28L689.5,1161.08L691.16,1162.86L691.51,1163.73L691.13,1164.55z"/>
		<path id="CA-QC" title="Quebec" class="land" 
d="M684.78,955.19l-2.08,1l0.51,0.99l1.5,0.99l-0.25,0.56l-2.13,1.34l0.48,0.89l1.55,1.15l-1.16,1.89l-0.240231389A11"/>
		<path id="CA-SK" title="Saskatchewan" class="land" 
d="M355.31,1131.52L277.92,1131.52L277.92,1131.52L277.92,960.68L277.92,960.68L349.62,960.68L349.62,960.68L349.63,1031.23z"/>
		<path id="CA-YT" title="Yukon" class="land" 
d="M40.86,774.22l-0.02,27.85l0.4,1.91l1.5,1.54l0.57,2.02l-0.07,2.14l0.65,2.76l-1.01,2.85l-0.05,2.14l0.4095FA56A69"/>
	</g>
</svg>