<?xml version="1.0" encoding="utf-8"?>
<!-- (c) ammap.com | SVG map of Chile -->
<svg xmlns="http://www.w3.org/2000/svg" xmlns:amcharts="../../../../../../../../../../../amcharts.com/ammap" xmlns:xlink="http://www.w3.org/1999/xlink" version="1.1">
	<defs>
		<style type="text/css">
			.land
			{
				fill: #CCCCCC;
				fill-opacity: 1;
				stroke:white;
				stroke-opacity: 1;
				stroke-width:0.5;
			}
		</style>

		<amcharts:ammap projection="mercator" leftLongitude="-109.449403" topLatitude="-17.500036" rightLongitude="-66.416233" bottomLatitude="-55.907355"></amcharts:ammap>

		<!-- All areas are listed in the line below. You can use this list in your script. -->
		<!--{id:"CL-AI"},{id:"CL-MA"},{id:"CL-TA"},{id:"CL-AN"},{id:"CL-AT"},{id:"CL-CO"},{id:"CL-RM"},{id:"CL-VS"},{id:"CL-AR"},{id:"CL-BI"},{id:"CL-LI"},{id:"CL-LL"},{id:"CL-ML"},{id:"CL-AP"},{id:"CL-LR"}-->

	</defs>
	<g>
		<path id="CL-AI" title="Aisén del General Carlos Ibáñez del Campo" class="land" 
d="M520.19,472.64l0.22,-0.05l0.46,-0.97l-0.15,-0.4l-0.87,-0.18l-0.31,0.32l-0.38,0.06l-1.42,-0.67l-0.76,003714BAF4"/>
		<path id="CL-MA" title="Magallanes y Antártica Chilena" class="land" 
d="M515.79,615.45l-0.32,-0.03l-0.48,-0.14l-0.49,-1.25l-0.25,-2.57l-0.1,-2.51l-0.28,-1.97l-0.22,-0.55L51059B9CDA2A"/>
		<path id="CL-TA" title="Tarapacá" class="land" d="M557.07,25.98L559.36,25.87L561.59,24.48L563.81,22.81L567.71,22.81L569.94,24.48L572.16,24.2L572.44,22.53L573.83,21.14L575.98,21.14L575.98,21.14L575.8,21.55L576.73,23.22L578.4,24.38L579,24.91L580.17,26.25L580.4,26.47L580.88,26.7L581.25,26.8L581.69,27.03L582.54,27.78L583.22,28.75L581.69,30.34L581.39,30.74L580.97,31.36L579.76,32.8L579.72,33.38L580.63,34.03L581.47,34.75L582.09,36L581.32,38.06L580.85,38.03L580.28,38.11L578.48,38.6L578.37,38.98L578.63,39.31L579.28,40.83L579.53,42.35L579.08,42.56L578.8,42.88L578.83,43.64L579.02,44.04L579.23,44.35L579.71,44.86L580.12,45.14L580.58,45.37L581,45.54L581.42,45.68L581.72,45.81L582.53,46.37L582.89,46.76L582.82,47.06L582.29,47.38L582.01,47.62L581.5,48.32L581.49,50.39L581.57,50.71L581.6,50.75L581.6,50.75L580.53,50.68L577.95,50.34L576.7,50.5L576.38,50.58L576.11,50.74L575.96,51.1L576.17,51.4L576.57,51.64L577.69,52.08L578.08,52.08L578.44,52.05L579.22,51.88L579.63,51.98L579.8,52.36L579.69,53.01L579.55,53.42L578.97,54.49L578.74,54.85L578.56,55.24L578.47,55.67L578.47,56.15L577.15,56.72L575.37,56.91L571.55,58.06L566.99,59.13L565.92,59.37L564.93,59.01L564.05,58.86L562.45,58.68L562.09,58.65L560.54,58.73L560.33,58.81L560.33,58.81L559.87,57.92L559.8,57.44L560.13,56.93L559.35,53.96L559.01,53.19L558.7,52.54L558.94,51.71L559.2,51.22L559.09,50.43L558.86,50.01L558.62,49.82L558.09,49.35L558.68,43.2L559.1,41.83L559.17,41.42L558.8,40.48L558.96,39.34L559.15,38.9L559.29,38.46L559.32,37.29L559.31,36.87L559.11,35.87L558.6,31.91L558.17,29.6L557.67,27.77L557.04,26.62z"/>
		<path id="CL-AN" title="Antofagasta" class="land" d="M582.34,51.41L582.72,51.47L583.08,51.43L583.5,51.42L586.27,55.88L586.85,56.85L586.89,61.6L587.12,61.88L587.56,62.48L587.8,62.95L588.04,63.67L588.25,64.81L588.29,65.15L588.31,65.72L588.29,66.22L588.32,66.96L589.58,68.27L589.92,68.47L590.33,69.15L590.63,71.2L590.63,71.73L590.49,72.13L591.09,74.06L591.67,76.03L591.18,78.45L591.29,80.22L592.47,80.98L595.52,81.34L598.99,80.6L601.15,80.12L602.27,81.33L603.75,82.9L603.08,84.77L602.43,86.57L601.79,88.37L601.61,88.89L598.98,98.62L594.66,100.57L590.97,102.22L586.83,104.04L585.93,104.46L585.59,105.22L585,105.99L584.33,105.88L583.98,106.1L582.95,107.67L582.31,108.69L581.84,109.61L581.46,110.43L581.41,110.92L581.74,111.79L582.42,112.19L584.48,115.72L583.56,116.21L582.62,116.36L582.47,116.5L582.21,116.93L581.93,118.04L581.93,118.04L581.16,118.03L580.58,118.18L580.13,118.46L579.55,118.95L579.07,119.4L578.73,119.65L578.38,119.73L577.67,119.69L577.12,119.61L576.66,119.68L576.16,119.88L575.75,120.1L575.44,120.31L574.72,120.88L574.43,121.66L574.29,122.75L574,123.3L573.69,123.31L573.83,126.07L569.66,126.07L569.1,127.74L567.71,128.02L566.32,129.69L564.09,128.02L562.96,126.5L562.77,126.52L561.81,126.43L561.39,126.35L560.87,126.31L560.36,126.52L560.09,126.67L559.56,127.01L559.23,127.3L557.42,128.39L556.41,128.49L555.09,128.69L554.48,128.81L554.08,128.91L553.72,129.04L553.45,129.18L553.19,129.34L552.4,129.93L551.72,130.87L551.72,130.87L552.11,130.17L552.17,129.86L552.12,129.35L551.84,128.49L551.44,128.07L551.16,127.75L550.69,126.6L551.14,124.95L551.38,124.22L552.08,122.7L552.93,121.58L553.45,121.19L554.68,119.54L554.92,117.89L554.93,116.99L554.61,116.13L553.94,115.21L554.02,113.14L553.57,112.22L553.31,111.37L552.79,109.4L553.02,106.94L553.3,104.44L553.42,103.69L553.24,103.37L553.49,102.09L553.71,101.3L553.87,101L553.98,99.93L553.91,99L553.67,98.45L553.66,97.92L553.8,95.99L553.99,94.93L554.42,94.36L554.79,94.07L555.02,93.65L555.31,92.93L555.44,92.51L555.53,92.15L555.52,91.51L555.4,91.03L555.22,90.55L555.03,90.32L554.55,89.98L554.15,89.78L553.84,89.91L553.45,90.77L552.24,90.55L552.56,88.68L552.63,86.43L552.91,83.89L553.41,83.32L553.92,83.09L554.03,83.77L554.31,84.14L555.16,83.98L555.62,83.75L555.9,83.5L556.14,83.21L556.31,82.94L556.72,81.97L557.02,81.12L556.94,80.67L556.82,80.34L556.68,79.64L557.06,77.42L557.42,74.45L557.64,72.34L557.92,70.03L558.13,69.06L558.43,67.93L558.97,64.07L558.91,63.6L558.89,62.57L559.14,61.75L559.79,61.19L559.87,60.43L560.33,58.81L560.33,58.81L560.54,58.73L562.09,58.65L562.45,58.68L564.05,58.86L564.93,59.01L565.92,59.37L566.99,59.13L571.55,58.06L575.37,56.91L577.15,56.72L578.47,56.15L578.47,55.67L578.56,55.24L578.74,54.85L578.97,54.49L579.55,53.42L579.69,53.01L579.8,52.36L579.63,51.98L579.22,51.88L578.44,52.05L578.08,52.08L577.69,52.08L576.57,51.64L576.17,51.4L575.96,51.1L576.11,50.74L576.38,50.58L576.7,50.5L577.95,50.34L580.53,50.68L581.6,50.75L581.6,50.75L581.67,50.91L581.97,51.24z"/>
		<path id="CL-AT" title="Atacama" class="land" d="M581.39,119.24L581.1,120.45L581.04,120.76L581,121.24L581.05,121.62L581.66,123.49L582.41,125.07L582.52,125.46L583.07,128.01L583.85,132.01L583.57,132.46L582.71,133.25L582.14,133.65L581.78,133.94L581.51,134.29L581.32,135.03L581.27,135.52L581.21,136.39L581.21,136.71L581.23,137.47L581.31,137.79L581.45,138.11L581.84,138.72L583.33,140.49L585.33,143.59L585.44,143.92L584.94,145.68L584.5,145.95L583.96,146.24L583.69,146.37L580.35,147.51L579.65,147.05L579.02,146.95L578.41,146.99L578.05,147.19L577.48,148.11L577.2,148.64L577.04,149.13L577.17,149.74L576.68,151.1L574.67,154.89L574.27,155.35L573.7,156.99L573.6,157.65L573.1,159.7L572.97,160.07L572.78,160.49L572.56,160.79L572.15,160.89L571.63,160.94L571.1,161.21L570.67,162.21L570.51,162.92L570.32,163.28L569.64,164.15L567.74,166.3L566.7,167.17L565.99,167.7L565.89,169.96L565.79,170.51L565.34,170.76L564.7,172.03L564.69,172.83L564.79,173.19L564.93,173.55L565.02,174.09L564.54,175.53L564.09,177.64L564.12,178.51L564.03,178.91L563.85,179.2L563.39,179.51L562.49,179.61L561.65,180.62L560.67,182.08L560.59,183.07L560.67,183.44L561.04,184.24L561.58,186.05L561.63,186.24L561.63,186.24L559.92,186.08L557.41,184.97L556.3,184.41L554.33,183.85L554.41,183.41L554.44,182.78L554.24,182.11L554.07,181.85L552.2,179.67L551.87,179.33L551.48,178.96L551.02,178.65L550.61,178.4L550.15,178.27L549.06,179.12L548.5,180.24L547.39,183.02L545.16,183.3L544.05,181.63L543.12,179.61L542.92,179.73L542.63,179.86L540.91,180.25L540.37,180.36L539.84,180.34L539.84,180.34L540.06,179.11L539.64,176.96L539.6,175.66L539.72,175.26L540.21,174.71L541.5,173.46L542.65,172.05L542.77,171.19L542.84,170.22L543.19,169.52L543.59,168.89L544.54,166.87L544.62,165.03L544.63,163.73L544.87,160.64L545.37,158.76L545.69,157.82L546.22,156.83L546.75,156.09L547.36,155.8L548.09,155.25L548.4,153.07L548.16,152.22L547.77,150.62L547.34,148.16L547.46,147.77L547.64,147.34L547.96,147.09L548.8,146.91L549.51,145.93L549.92,145.13L549.69,144.15L549.45,143.62L549.37,143.2L551.09,138.91L551.23,138.37L551.38,136.38L552.01,134.25L551.58,132.65L551.58,132.12L551.72,130.87L551.72,130.87L552.4,129.93L553.19,129.34L553.45,129.18L553.72,129.04L554.08,128.91L554.48,128.81L555.09,128.69L556.41,128.49L557.42,128.39L559.23,127.3L559.56,127.01L560.09,126.67L560.36,126.52L560.87,126.31L561.39,126.35L561.81,126.43L562.77,126.52L562.96,126.5L564.09,128.02L566.32,129.69L567.71,128.02L569.1,127.74L569.66,126.07L573.83,126.07L573.69,123.31L574,123.3L574.29,122.75L574.43,121.66L574.72,120.88L575.44,120.31L575.75,120.1L576.16,119.88L576.66,119.68L577.12,119.61L577.67,119.69L578.38,119.73L578.73,119.65L579.07,119.4L579.55,118.95L580.13,118.46L580.58,118.18L581.16,118.03L581.93,118.04L581.93,118.04L581.86,118.11L581.57,118.75z"/>
		<path id="CL-CO" title="Coquimbo" class="land" d="M539.84,180.34L540.37,180.36L540.91,180.25L542.63,179.86L542.92,179.73L543.12,179.61L544.05,181.63L545.16,183.3L547.39,183.02L548.5,180.24L549.06,179.12L550.15,178.27L550.61,178.4L551.02,178.65L551.48,178.96L551.87,179.33L552.2,179.67L554.07,181.85L554.24,182.11L554.44,182.78L554.41,183.41L554.33,183.85L556.3,184.41L557.41,184.97L559.92,186.08L561.63,186.24L561.63,186.24L561.66,186.38L561.7,187.11L561.6,187.56L561.53,188L561.62,188.37L561.8,188.63L562.26,188.94L562.3,189.06L562.44,190.35L562.4,192.29L562.24,193.2L562.15,193.62L563.03,195.32L563.34,195.59L563.52,195.98L563.48,196.74L562.52,198.94L561.96,199.72L561.11,200.09L560.66,200.14L560.35,200.09L559.18,200.83L558.08,202.79L557.5,204.08L557.26,204.75L556.59,207.16L556.43,208.25L556.37,208.92L556.42,209.34L556.94,209.98L556.89,210.54L555.94,211.59L554.97,211.93L554.67,211.61L553.68,212.68L553.53,213.05L553.12,215.38L553.01,217.82L552.85,218.83L552.74,219.39L554.56,223.86L554.73,224.13L554.97,224.46L555.23,224.63L555.78,224.75L556.76,224.69L557.04,224.85L557.71,225.62L557.78,226.07L557.32,227.36L556.72,227.45L556.12,228.1L556.58,230.47L556.52,231.09L556.52,231.09L555.18,231.26L554.78,231.02L554.66,230.63L554.44,229.83L554.04,229.49L553.65,229.37L553.36,229.36L552.97,229.37L552.32,229.26L551.66,228.78L551.64,228.37L551.59,227.82L550.61,227.22L546.27,227.35L545.83,228.06L545.15,228.82L544.85,229.02L541.89,229.7L541.29,229.67L541.29,229.67L540.9,229.53L540.25,229.2L540.25,229.2L539.85,229.21L539.52,229.43L539.21,229.77L539.21,229.77L539.3,228.18L539.45,227.38L539.54,226.99L539.66,226.32L539.67,224.88L539.59,222.86L539.18,221.88L538.83,220.19L538.82,219.16L538.76,218.72L538.03,215.27L537.48,213.05L537.38,212.74L537.38,212.22L537.56,211.33L537.63,209.82L537.46,209.24L537.24,208.85L537.17,208.48L536.86,206.12L536.87,204.41L536.92,202.8L536.96,201.92L537.21,199.23L537.68,198.1L538.11,197.94L538.28,198.21L538.75,198.39L539.09,198.41L539.6,198.16L541.09,196.66L541.37,196.16L542.03,192.87L542.74,192.15L542.71,190.92L542.28,190.47L542.02,189.5L542.08,186.3L542.29,185.07L542.47,184.52L542.46,184.15L542,182.62L541.8,182.28L541.45,181.94L540.69,181.39L540.34,181.19L540.04,180.96L539.88,180.6z"/>
		<path id="CL-RM" title="Región Metropolitana de Santiago" class="land" d="M560.41,265.31L560.4,264.95L560.3,264.61L559.94,264.35L559.26,264.08L558.8,263.59L558.73,263.24L558.78,262.11L558.61,261.41L558.36,261.22L557.97,261.25L557.57,261.54L557.23,261.63L556.23,261.29L556.36,260.42L555.8,258.57L555.48,258.28L554.98,258.11L554.48,258.11L552.81,258.76L552.25,259.11L551.21,259.19L550.82,259.06L549.65,259.79L547.78,261.96L547.72,262.35L547.77,263.07L546.6,263.34L545.24,263.38L545.2,263.36L544.04,261.66L542.25,260.89L541.35,259.23L539.05,259.36L537.64,258.78L537.64,258.78L538.4,258.29L538.4,258.29L538.86,256.72L539.17,256.71L539.98,256.75L540.7,256.97L541.17,256.94L541.87,256.19L542.49,253.85L541.96,252.55L541.75,251.38L541.76,251.04L542.14,250.84L543.14,249.83L543.58,249.26L543.7,248.87L543.67,247.67L543.86,247.31L544.74,247.16L545.61,247.14L546.6,246.47L546.55,244.35L546.37,243.58L546.5,242.95L546.79,242.81L548.43,242.18L550.39,242.18L551.73,242.51L552.46,242.78L553.04,243.33L553.23,243.99L553.72,244.7L554.06,244.73L554.98,243.95L555.31,243.99L556.3,245.09L557.76,245.74L558.95,244.7L559.67,244.31L559.67,244.31L559.88,244.73L559.79,245.51L559.65,246.02L559.73,246.47L561.08,248.49L561.43,248.44L561.72,247.92L562.12,247.51L562.47,247.45L562.86,247.58L563.88,248.15L564.29,249.99L564.17,250.42L563.8,250.85L562.94,252.84L562.44,256.64L562.45,257.47L562.73,258.57L563.24,262.08L563.68,264.43L562.68,265.18L562.02,265.13L561.69,265.04L561.28,265.03L560.67,265.15z"/>
		<path id="CL-VS" title="Valparaíso" class="land" d="M541.29,229.67l0.6,0.03l2.96,-0.68l0.31,-0.2l0.68,-0.76l0.44,-0.71l4.34,-0.13l0.98,0.6l0.06,0.55l0.02,0.41l0.66,0.48l0.65,0.11l0.38,-0.01l0.3,0.01l0.39,0.12l0.4,0.34l0.22,0.8l0.12,0.38l0.4,0.24l1.34,-0.17l0,0l0.11,0.32l0.98,0.43l0.19,0.53l1.09,2.25l0.11,0.51l-0.08,0.62l0.57,0.63l0.89,0.89l1.28,1.66l0.13,1.41l-0.61,1.02l-0.4,1.23l-0.72,0.96l-0.4,0.78l0,0l-0.72,0.39l-1.19,1.04l-1.46,-0.65l-0.99,-1.1l-0.33,-0.04l-0.92,0.78l-0.34,-0.03l-0.49,-0.71l-0.19,-0.66l-0.58,-0.56l-0.73,-0.26l-1.33,-0.34l-1.97,0l-1.64,0.63l-0.29,0.15l-0.13,0.63l0.18,0.76l0.06,2.12l-0.99,0.67l-0.87,0.02l-0.89,0.15l-0.19,0.36l0.03,1.2l-0.12,0.39l-0.43,0.57l-1.01,1l-0.38,0.2l-0.01,0.34l0.21,1.17l0.54,1.31l-0.62,2.33l-0.7,0.75l-0.47,0.03l-0.72,-0.22l-0.81,-0.03l-0.31,0.01l-0.46,1.57l0,0l-1.34,0.87l0,0l-0.5,0.63l-0.5,-0.09l-0.54,-0.12l-0.37,-0.31l-0.67,0.02l0,0l0.43,-1.56l0.49,-1.16l0.38,-0.14l0.5,-0.1l0.41,-0.21l0.5,-0.44l0.26,-0.67l0.08,-0.34l0.09,-0.54l0.13,-1.29l-0.78,-3.11l-0.17,-1.97l-0.71,-2.53l0.14,-0.31l0.68,0.04l1.83,-1.35l0.66,-1.85l0.35,-2.31l0.59,-1.16l0.16,-0.49l0.06,-0.52l0.01,-2.41l0.5,-1.63l-0.9,-1.56l-0.59,-0.89l-0.39,-1.01l0,0l0.32,-0.35l0.33,-0.22l0.4,-0.01l0,0l0.65,0.33L541.29,229.67zM2.95,147.41l-0.74,0.29l-0.44,-0.01l-0.17,0.04l-0.78,0.41l-0.38,0.26l-0.17,0.14l-0.25,-0.06L0,148.14l0.35,-1.17l0.08,-0.19l0.09,-0.13l0.22,-0.27l0.35,-0.06l2.12,0.54l0.03,0.18l-0.09,0.2L2.95,147.41z"/>
		<path id="CL-AR" title="Araucanía" class="land" d="M511.23,336.25L511.29,336.26L511.57,336.4L512.01,336.64L513.18,337.42L516.92,333.74L517.15,333.29L517.25,332.94L517.36,332.39L517.1,331.96L516.6,331.71L516.08,330.3L517.78,327.7L518.19,327.21L518.35,325.59L518.16,325.23L517.26,325.15L516.95,324.77L518.26,323.13L520.21,322.84L520.81,323.17L521.41,323.56L521.92,323.86L523.87,324.33L525.08,324.3L525.95,325.32L526.35,326.3L527.23,327.56L527.88,327.96L528.18,328.08L528.66,328.16L529.17,328.29L529.53,328.47L530.75,329.52L530.92,329.95L531.38,330.52L531.68,330.73L533.82,331.09L535.58,330.92L536,330.8L536.49,330.99L536.95,331.66L536.95,332.4L536.89,332.95L536.86,333.54L536.92,333.96L537.2,335.02L537.38,335.38L537.89,335.75L538.12,335.29L538.31,334.84L538.54,334.59L539.8,333.99L540.73,333.5L540.97,333.27L541.19,332.66L542.67,332.34L545.96,332.27L546.87,332.42L546.87,332.42L546.85,333.24L546.67,334.56L546.82,335.6L547.27,337.95L547.57,338.59L548.18,339.23L548.56,339.46L549.08,339.88L549.34,340.49L549.28,341.08L548.83,342.93L547.95,343.85L547.63,344L546.94,343.98L546.49,343.93L546.1,343.99L545.47,344.31L543.46,345.49L542.11,346.3L541.73,346.54L541.26,346.99L541.02,347.39L540.91,347.85L540.85,348.82L540.86,349.29L541,349.77L541.14,350.93L541.35,352.95L541.13,354.6L540.46,356.53L539.96,358.84L539.85,359.53L539.65,359.87L538.34,359.94L537.97,359.77L537.38,358.94L537.16,358.95L537.16,358.95L537.12,358.55L537.03,358.09L536.86,357.65L536.56,357.6L535.6,357.58L534.8,357.02L534.41,356.64L533.96,356.33L533.6,356.21L531.33,356.01L530.95,356.08L530.59,356.26L530.17,356.66L529.89,356.97L529.53,357.17L528.18,357.69L527.64,357.61L526.98,357.28L524.88,356.55L524.46,356.54L523.39,356.74L522.98,356.76L522.54,356.72L522.13,356.63L521.77,356.38L521.35,355.91L520.93,355.14L520.78,354.09L520.46,353.84L518.4,353.88L517.7,354.75L517.42,355.23L517.04,355.62L516.6,355.85L516.16,355.9L515.76,355.85L515.4,355.76L514.92,355.62L514.92,355.62L515.28,354.98L515.18,352.96L514.38,350.12L511.87,342.94L511.04,340.16L510.7,338L510.72,337.42L510.97,336.37z"/>
		<path id="CL-BI" title="Bío-Bío" class="land" d="M521.53,294.3L523.12,295.01L523.34,295.25L523.44,295.86L525.5,297.68L528.22,299.1L528.58,299.22L530.33,299.27L531.35,298.12L531.32,297.68L531.43,297.14L532.53,298.3L532.72,298.74L532.82,299.07L533.07,299.29L533.84,299.47L534.16,299.49L534.52,299.34L534.86,299.24L535.79,299.39L536.15,300.17L536.33,300.61L536.68,300.95L537.2,301.28L538.09,301.63L539.28,301.99L540.81,303.25L541.1,303.54L542.51,304.32L543.09,304.4L543.5,303.94L543.54,303.56L543.65,303.11L544.78,301.67L545.05,301.47L545.38,301.42L545.87,301.67L545.97,302.19L546.12,302.81L546.54,303.3L546.63,303.35L546.63,303.35L546.37,303.49L546.08,304.6L544.91,308.04L544.21,309.87L544.75,312.17L545.26,314.64L545.01,316.02L544.76,316.8L544.26,317.38L544.07,317.98L544.49,319.35L544.79,319.82L545.18,320.35L545.32,320.77L545.11,323.08L544.62,323.45L544.36,323.76L544.27,324.35L544.3,325.02L544.57,325.9L544.91,326.71L545.1,327.55L545.51,328.35L546.89,331.73L546.87,332.42L546.87,332.42L545.96,332.27L542.67,332.34L541.19,332.66L540.97,333.27L540.73,333.5L539.8,333.99L538.54,334.59L538.31,334.84L538.12,335.29L537.89,335.75L537.38,335.38L537.2,335.02L536.92,333.96L536.86,333.54L536.89,332.95L536.95,332.4L536.95,331.66L536.49,330.99L536,330.8L535.58,330.92L533.82,331.09L531.68,330.73L531.38,330.52L530.92,329.95L530.75,329.52L529.53,328.47L529.17,328.29L528.66,328.16L528.18,328.08L527.88,327.96L527.23,327.56L526.35,326.3L525.95,325.32L525.08,324.3L523.87,324.33L521.92,323.86L521.41,323.56L520.81,323.17L520.21,322.84L518.26,323.13L516.95,324.77L517.26,325.15L518.16,325.23L518.35,325.59L518.19,327.21L517.78,327.7L516.08,330.3L516.6,331.71L517.1,331.96L517.36,332.39L517.25,332.94L517.15,333.29L516.92,333.74L513.18,337.42L512.01,336.64L511.57,336.4L511.29,336.26L511.23,336.25L511.23,336.25L511.01,335.31L511.23,334.86L511.51,334.56L511.69,334.19L511.94,331.49L511.76,330.75L511.44,329.81L510.8,328.27L509.79,326.53L508.91,325.56L508.66,323.36L508.84,322.89L509.37,322.21L509.8,321.78L509.97,321.09L509.9,320.42L509.63,319.87L509.3,319.45L508.93,319.12L508.78,318.78L509.32,316.15L509.48,315.75L510.07,315.32L510.69,316.03L511.06,316.27L512.2,316.79L512.81,316.78L513.1,316.77L513.47,316.71L514.24,316.48L514.83,316.21L515.18,315.94L515.52,315.48L515.73,315L516.08,313.63L516.35,310.41L516.57,306.99L517.08,307.22L517.41,307.55L517.85,307.66L518.2,307.66L518.48,307.53L518.68,307.28L518.96,305.95L519.5,303.98L520.14,302.27L520.74,300.7L521.04,297.11L521.32,294.55z"/>
		<path id="CL-LI" title="Libertador General Bernardo O'Higgins" class="land" d="M537.64,258.78L539.05,259.36L541.35,259.23L542.25,260.89L544.04,261.66L545.2,263.36L545.24,263.38L546.6,263.34L547.77,263.07L547.72,262.35L547.78,261.96L549.65,259.79L550.82,259.06L551.21,259.19L552.25,259.11L552.81,258.76L554.48,258.11L554.98,258.11L555.48,258.28L555.8,258.57L556.36,260.42L556.23,261.29L557.23,261.63L557.57,261.54L557.97,261.25L558.36,261.22L558.61,261.41L558.78,262.11L558.73,263.24L558.8,263.59L559.26,264.08L559.94,264.35L560.3,264.61L560.4,264.95L560.41,265.31L560.41,265.31L560.34,265.48L560.34,266.49L560.44,267.27L558.96,269.52L557.78,271.76L556.85,275.07L555.97,277.54L555.97,277.54L555.86,277.55L555.02,277.49L552.44,277.23L550.84,276L550.24,275.39L549.96,275.22L545.97,274.03L545.43,273.89L545.03,273.89L542.5,274.09L541.32,275.11L541.37,275.49L541.43,276.08L539.25,275.69L537.09,275.55L535.64,275.11L533.68,274.31L533.19,273.57L532.37,272.56L532.11,272.38L531.69,272.21L531.69,272.21L531.83,271.54L532.04,269.25L531.93,268.24L531.89,267.57L532.19,267.08L532.72,266.78L532.86,266.34L532.85,265.46L532.76,264.19L532.46,263.79L532.35,263.45L532.4,262.88L534.1,259.79L534.49,259.29L534.49,259.29L535.16,259.27L535.53,259.58L536.07,259.7L536.56,259.78L537.06,259.16L537.06,259.16z"/>
		<path id="CL-LL" title="Los Lagos" class="land" 
d="M495.16,435.42l-0.27,0.26l-0.32,0.03l-0.38,-0.05l-0.21,0.05l-0.28,0.11l-0.17,0.09l-0.51,0.42l-0.12,-0F2661CA6C"/>
		<path id="CL-ML" title="Maule" class="land" d="M546.63,303.35L546.54,303.3L546.12,302.81L545.97,302.19L545.87,301.67L545.38,301.42L545.05,301.47L544.78,301.67L543.65,303.11L543.54,303.56L543.5,303.94L543.09,304.4L542.51,304.32L541.1,303.54L540.81,303.25L539.28,301.99L538.09,301.63L537.2,301.28L536.68,300.95L536.33,300.61L536.15,300.17L535.79,299.39L534.86,299.24L534.52,299.34L534.16,299.49L533.84,299.47L533.07,299.29L532.82,299.07L532.72,298.74L532.53,298.3L531.43,297.14L531.32,297.68L531.35,298.12L530.33,299.27L528.58,299.22L528.22,299.1L525.5,297.68L523.44,295.86L523.34,295.25L523.12,295.01L521.53,294.3L521.53,294.3L521.8,294.12L522.51,293.46L524.05,291.9L524.23,291.54L524.35,290.99L524.32,290.35L523.98,289.52L523.38,288.04L523.42,287.55L523.74,287.17L524.33,286.84L525.31,286.01L526.22,283.71L526.72,282.26L526.93,281.84L527.53,281.12L527.99,280.82L528.54,280.5L529.35,279.71L529.64,279.07L529.77,278.3L529.81,277.78L529.83,277.17L529.85,276.67L529.97,275.73L530.75,274L531.07,273.66L531.35,273.23L531.69,272.21L531.69,272.21L532.11,272.38L532.37,272.56L533.19,273.57L533.68,274.31L535.64,275.11L537.09,275.55L539.25,275.69L541.43,276.08L541.37,275.49L541.32,275.11L542.5,274.09L545.03,273.89L545.43,273.89L545.97,274.03L549.96,275.22L550.24,275.39L550.84,276L552.44,277.23L555.02,277.49L555.86,277.55L555.97,277.54L555.97,277.54L555.94,277.67L555.92,278.33L555.94,278.97L556,279.33L555.92,280.1L555.67,280.52L554.67,281.03L554.23,281.12L553.74,281.14L553.4,281.23L553.05,281.78L553.02,282.23L553.26,282.73L553.51,282.93L555.08,283.91L555.45,286.53L555.34,288.26L555.13,288.62L555.27,289.27L555.76,290.36L556.2,291.69L555.75,292.07L555.37,292.73L555.23,293.12L555.29,294.49L555.45,296.31L555.05,297.37L554.85,297.64L554.44,297.87L553.91,297.83L552.71,297.88L551.06,299.74L550.87,301.03L551.18,301.85L551.03,302.27L547.53,303.54L547.12,303.48z"/>
		<path id="CL-AP" title="Arica y Parinacota" class="land" d="M575.98,21.14L573.83,21.14L572.44,22.53L572.16,24.2L569.94,24.48L567.71,22.81L563.81,22.81L561.59,24.48L559.36,25.87L557.07,25.98L557.07,25.98L557.09,25.37L557.26,25L557.22,24.37L556.49,20.32L556.26,19.71L556.11,16.79L556.25,15.93L556.65,13.86L556.28,13.31L555.92,12.94L555.45,12.58L555.32,12.53L555.54,12.33L555.87,12.15L556.42,12.1L557.54,12.22L558.23,12.26L558.55,12.24L559.2,12.12L561.22,11.36L561.68,11.05L562.97,9.69L563.3,9.31L563.98,7.93L564.29,7.13L564.36,6.64L563.75,4.39L563.62,4.11L563.39,3.89L563.22,3.62L563.28,3.01L563.44,2.61L563.72,2.18L564.35,2.25L565.58,2.35L568.2,0L568.38,1.89L569.96,3.29L570.25,3.56L570.65,4.34L570.78,4.75L570.74,5.74L570.83,6.26L570.96,6.69L571.17,7.04L573.41,7.77L574.29,7.92L574.27,8.36L574.14,8.64L573.62,8.96L573.33,9.21L573.19,9.58L573.38,10.02L573.68,10.33L574.02,10.74L574.25,13.18L574.45,13.51L574.75,13.91L574.88,14.18L574.98,14.54L574.95,14.9L574.85,15.68L574.9,16.45L574.96,17.15L575.3,18.41L576,19.95L576.27,20.5z"/>
		<path id="CL-LR" title="Los Ríos" class="land" d="M534.95,376.79L532.36,376.44L530.13,376.72L529.02,378.39L527.35,380.34L524.57,379.22L522.06,377L520.11,375.6L518.72,373.1L516.5,372.27L514.27,373.94L512.88,373.66L512.04,372.27L507.77,371.91L507.77,371.91L508.07,370.17L509.03,369.01L508.96,367.93L508.81,367.44L508.44,366.99L508.25,366.59L508.54,366.13L508.75,365.89L511.43,364.58L512.67,364.8L513.04,364.24L513.01,362.06L514.06,359.37L514.28,358.96L514.79,357.65L515.23,356.19L514.92,355.62L514.92,355.62L515.4,355.76L515.76,355.85L516.16,355.9L516.6,355.85L517.04,355.62L517.42,355.23L517.7,354.75L518.4,353.88L520.46,353.84L520.78,354.09L520.93,355.14L521.35,355.91L521.77,356.38L522.13,356.63L522.54,356.72L522.98,356.76L523.39,356.74L524.46,356.54L524.88,356.55L526.98,357.28L527.64,357.61L528.18,357.69L529.53,357.17L529.89,356.97L530.17,356.66L530.59,356.26L530.95,356.08L531.33,356.01L533.6,356.21L533.96,356.33L534.41,356.64L534.8,357.02L535.6,357.58L536.56,357.6L536.86,357.65L537.03,358.09L537.12,358.55L537.16,358.95L537.16,358.95L537.05,359.1L536.78,360.04L536.83,361.9L537.34,364.24L537.85,366.01L537.38,367.8L536.19,368.58L535.61,369.05L535.23,370.71L535.61,371.48L536.63,372.53L536.87,372.1L537.35,372.43L537.42,373.13L536.88,374.43L536.68,374.78L536.4,374.86L536.07,374.54L535.77,374.51z"/>
	</g>
</svg>