<?xml version="1.0" encoding="utf-8"?>
<!-- (c) ammap.com | SVG map of Chile -->
<svg xmlns="http://www.w3.org/2000/svg" xmlns:amcharts="../../../../../../../../../../../amcharts.com/ammap" xmlns:xlink="http://www.w3.org/1999/xlink" version="1.1">
	<defs>
		<style type="text/css">
			.land
			{
				fill: #CCCCCC;
				fill-opacity: 1;
				stroke:white;
				stroke-opacity: 1;
				stroke-width:0.5;
			}
		</style>

		<amcharts:ammap projection="mercator" leftLongitude="-109.450502" topLatitude="-17.498982" rightLongitude="-66.428316" bottomLatitude="-55.906121"></amcharts:ammap>

		<!-- All areas are listed in the line below. You can use this list in your script. -->
		<!--{id:"CL-AI"},{id:"CL-MA"},{id:"CL-TA"},{id:"CL-AN"},{id:"CL-AT"},{id:"CL-CO"},{id:"CL-RM"},{id:"CL-VS"},{id:"CL-AR"},{id:"CL-BI"},{id:"CL-LI"},{id:"CL-LL"},{id:"CL-ML"},{id:"CL-AP"},{id:"CL-LR"}-->

	</defs>
	<g>
		<path id="CL-AI" title="Aisén del General Carlos Ibáñez del Campo" class="land" 
d="M520.19,472.64l0.53,-1.41l-1.56,0.2l-1.42,-0.67l-2.57,-2.53l-2,0.82l-1.02,-0.16l-0.32,-0.69l0.21,-1.0565557A5A"/>
		<path id="CL-MA" title="Magallanes y Antártica Chilena" class="land" 
d="M515.79,615.45l-0.8,-0.17l-0.49,-1.25l-0.64,-7.05L513,605.7l1.46,10.47l-0.55,1.04l-3.53,-2.99l-1.2,-068A598AD1"/>
		<path id="CL-TA" title="Tarapacá" class="land" d="M557.07,25.98L559.36,25.87L563.81,22.81L567.71,22.81L569.94,24.48L572.16,24.2L572.44,22.53L573.83,21.14L575.98,21.14L575.98,21.14L576.73,23.22L583.22,28.75L579.76,32.8L582.09,36L581.32,38.06L578.37,38.98L579.53,42.35L578.8,42.88L579.02,44.04L582.89,46.76L581.5,48.32L581.6,50.75L581.6,50.75L577.95,50.34L576.11,50.74L576.57,51.64L579.8,52.36L578.47,56.15L577.15,56.72L565.92,59.37L560.33,58.81L560.33,58.81L558.7,52.54L559.09,50.43L558.09,49.35L559.31,36.87z"/>
		<path id="CL-AN" title="Antofagasta" class="land" d="M582.34,51.41L583.5,51.42L586.85,56.85L586.89,61.6L588.04,63.67L588.32,66.96L590.33,69.15L590.49,72.13L591.67,76.03L591.29,80.22L592.47,80.98L595.52,81.34L601.15,80.12L603.75,82.9L598.98,98.62L585.93,104.46L585,105.99L583.98,106.1L582.31,108.69L581.41,110.92L584.48,115.72L582.47,116.5L581.93,118.04L581.93,118.04L580.58,118.18L578.73,119.65L575.44,120.31L573.69,123.31L573.83,126.07L569.66,126.07L569.1,127.74L567.71,128.02L566.32,129.69L562.96,126.5L560.87,126.31L557.42,128.39L553.72,129.04L551.72,130.87L551.72,130.87L552.12,129.35L550.69,126.6L552.08,122.7L554.68,119.54L554.92,117.89L552.79,109.4L553.98,99.93L553.8,95.99L555.52,91.51L554.15,89.78L553.45,90.77L552.24,90.55L552.91,83.89L553.92,83.09L554.31,84.14L555.62,83.75L557.02,81.12L556.68,79.64L558.89,62.57L560.33,58.81L560.33,58.81L565.92,59.37L577.15,56.72L578.47,56.15L579.8,52.36L576.57,51.64L576.11,50.74L577.95,50.34L581.6,50.75L581.6,50.75z"/>
		<path id="CL-AT" title="Atacama" class="land" d="M581.39,119.24L581.05,121.62L582.52,125.46L583.85,132.01L581.51,134.29L581.23,137.47L585.33,143.59L584.94,145.68L580.35,147.51L578.05,147.19L576.68,151.1L574.27,155.35L572.78,160.49L571.1,161.21L570.32,163.28L565.99,167.7L565.79,170.51L564.7,172.03L565.02,174.09L564.03,178.91L562.49,179.61L560.67,182.08L561.63,186.24L561.63,186.24L559.92,186.08L554.33,183.85L554.07,181.85L550.61,178.4L549.06,179.12L547.39,183.02L545.16,183.3L543.12,179.61L539.84,180.34L539.84,180.34L539.72,175.26L542.65,172.05L542.84,170.22L544.54,166.87L545.37,158.76L546.75,156.09L548.09,155.25L548.4,153.07L547.34,148.16L549.92,145.13L549.37,143.2L551.23,138.37L552.01,134.25L551.72,130.87L551.72,130.87L553.72,129.04L557.42,128.39L560.87,126.31L562.96,126.5L566.32,129.69L567.71,128.02L569.1,127.74L569.66,126.07L573.83,126.07L573.69,123.31L575.44,120.31L578.73,119.65L580.58,118.18L581.93,118.04L581.93,118.04z"/>
		<path id="CL-CO" title="Coquimbo" class="land" d="M539.84,180.34L543.12,179.61L545.16,183.3L547.39,183.02L549.06,179.12L550.61,178.4L554.07,181.85L554.33,183.85L559.92,186.08L561.63,186.24L561.63,186.24L561.53,188L562.44,190.35L562.15,193.62L563.48,196.74L561.96,199.72L559.18,200.83L558.08,202.79L556.59,207.16L556.89,210.54L553.68,212.68L553.12,215.38L552.74,219.39L554.56,223.86L557.71,225.62L557.32,227.36L556.12,228.1L556.52,231.09L556.52,231.09L554.78,231.02L554.44,229.83L552.32,229.26L550.61,227.22L546.27,227.35L544.85,229.02L541.29,229.67L541.29,229.67L541.29,229.67L541.29,229.67L539.85,229.21L539.21,229.77L539.21,229.77L539.59,222.86L537.38,212.74L537.63,209.82L536.86,206.12L537.21,199.23L537.68,198.1L539.09,198.41L541.09,196.66L542.03,192.87L542.74,192.15L542.02,189.5L542.46,184.15L541.8,182.28z"/>
		<path id="CL-RM" title="Región Metropolitana de Santiago" class="land" d="M560.41,265.31L560.3,264.61L558.8,263.59L558.61,261.41L556.23,261.29L555.8,258.57L554.98,258.11L549.65,259.79L547.78,261.96L547.77,263.07L546.6,263.34L545.2,263.36L544.04,261.66L542.25,260.89L541.35,259.23L539.05,259.36L537.64,258.78L537.64,258.78L538.4,258.29L538.4,258.29L538.86,256.72L541.17,256.94L541.87,256.19L542.49,253.85L541.76,251.04L543.58,249.26L543.86,247.31L546.6,246.47L546.5,242.95L550.39,242.18L552.46,242.78L553.72,244.7L555.31,243.99L557.76,245.74L559.67,244.31L559.67,244.31L559.73,246.47L561.08,248.49L562.12,247.51L562.86,247.58L563.88,248.15L564.29,249.99L562.94,252.84L562.44,256.64L563.68,264.43L562.68,265.18z"/>
		<path id="CL-VS" title="Valparaíso" class="land" 
d="M539.21,229.77l0.65,-0.56l2.03,0.49l2.96,-0.68l1.43,-1.67l4.34,-0.13l1.71,2.04l2.12,0.57l0.34,1.19l10FB848CAF8"/>
		<path id="CL-AR" title="Araucanía" class="land" d="M511.23,336.25L513.18,337.42L516.92,333.74L517.36,332.39L516.08,330.3L518.19,327.21L518.35,325.59L516.95,324.77L518.26,323.13L520.21,322.84L521.92,323.86L525.08,324.3L527.23,327.56L529.53,328.47L531.68,330.73L536.49,330.99L537.2,335.02L537.89,335.75L538.54,334.59L540.73,333.5L541.19,332.66L546.87,332.42L546.87,332.42L547.27,337.95L549.34,340.49L548.83,342.93L547.95,343.85L546.1,343.99L541.26,346.99L540.86,349.29L541.35,352.95L539.85,359.53L538.34,359.94L537.16,358.95L537.16,358.95L536.86,357.65L535.6,357.58L533.6,356.21L530.95,356.08L528.18,357.69L524.88,356.55L522.13,356.63L520.46,353.84L518.4,353.88L516.6,355.85L514.92,355.62L514.92,355.62L515.18,352.96L511.04,340.16L510.72,337.42z"/>
		<path id="CL-BI" title="Bío-Bío" class="land" d="M521.53,294.3L523.12,295.01L525.5,297.68L528.58,299.22L530.33,299.27L531.43,297.14L533.07,299.29L535.79,299.39L536.68,300.95L539.28,301.99L542.51,304.32L543.09,304.4L545.05,301.47L545.87,301.67L546.63,303.35L546.63,303.35L544.21,309.87L545.26,314.64L544.07,317.98L545.32,320.77L544.3,325.02L546.87,332.42L546.87,332.42L541.19,332.66L540.73,333.5L538.54,334.59L537.89,335.75L537.2,335.02L536.49,330.99L531.68,330.73L529.53,328.47L527.23,327.56L525.08,324.3L521.92,323.86L520.21,322.84L518.26,323.13L516.95,324.77L518.35,325.59L518.19,327.21L516.08,330.3L517.36,332.39L516.92,333.74L513.18,337.42L511.23,336.25L511.23,336.25L511.94,331.49L510.8,328.27L508.91,325.56L508.66,323.36L509.97,321.09L508.78,318.78L509.32,316.15L510.07,315.32L511.06,316.27L513.1,316.77L515.52,315.48L516.57,306.99L517.85,307.66L518.68,307.28L520.74,300.7z"/>
		<path id="CL-LI" title="Libertador General Bernardo O'Higgins" class="land" d="M537.64,258.78L539.05,259.36L541.35,259.23L542.25,260.89L544.04,261.66L545.2,263.36L546.6,263.34L547.77,263.07L547.78,261.96L549.65,259.79L554.98,258.11L555.8,258.57L556.23,261.29L558.61,261.41L558.8,263.59L560.3,264.61L560.41,265.31L560.41,265.31L560.44,267.27L557.78,271.76L555.97,277.54L555.97,277.54L552.44,277.23L549.96,275.22L545.43,273.89L542.5,274.09L541.32,275.11L541.43,276.08L537.09,275.55L533.68,274.31L531.69,272.21L531.69,272.21L531.89,267.57L532.86,266.34L532.4,262.88L534.49,259.29L534.49,259.29L536.56,259.78L537.06,259.16L537.06,259.16z"/>
		<path id="CL-LL" title="Los Lagos" class="land" d="M495.16,435.42l-2.27,0.9l-0.9,-1.76l1.37,-0.58L495.16,435.42zM512.5,414.5l-0.29,0.61l-0.52,-1.04l-2.18,-1.02l-0.35,-1.31l1.66,0.14L512.5,414.5zM505.81,401.11l-1.56,0.44l1.74,0.99l2.45,-1.61l1.82,-0.14l0.99,0.67l-0.32,2.5l1.09,1.71l-0.72,1.2l1.49,1.26l0.36,1.1l-0.34,1.12l-3.9,0.98l-0.33,1.99l1.05,0.93l-1.54,0.64l-0.79,-0.71l0.27,-0.76l-0.84,0.9l0.17,1.76l4.39,3.75l0.09,1.47l-1.65,0.12l-0.6,1.02l2.28,3.5l-4.11,0.22l0.21,1.63l1.01,1.37l-0.29,1.73l-2.16,0.54l-1.25,-0.86l-4.66,-0.79l-1.76,-1.3l3.24,-6.96l0.4,-5.97l-0.87,-1.46l0.54,-5.12l1.37,-1.76l0.92,-4.38l-0.7,-1.9l0.47,-0.75l1.66,0.15L505.81,401.11zM507.77,371.91l4.27,0.36l0.84,1.39l1.39,0.28l2.23,-1.67l2.23,0.83l1.39,2.5l4.45,3.62l2.78,1.11l2.78,-3.62l4.82,0.07l0,0l-0.31,2.1l-1.29,1.56l1.59,4.28l-0.87,7.55l0.7,3.65l-0.92,1.95l1.8,3.97l0.87,4.46l-2.57,1.55l-0.78,-0.9l-0.79,0.09l-1.61,2.9l1.22,1.6l-1.34,4.26l0.53,5.09l-0.49,2.92l1.19,1.92l3.09,0.55l1.36,0.84l-0.01,2.36l-2.21,0.54l-0.57,2.5l3.33,2.9l-0.02,1.72l-1.49,0.88l0,0.57l1.56,2.03l0,0l-1.55,-0.48l-2,0.98l-0.2,0.79l-1.99,0.22l-0.37,-1.3l-1.84,-1.08l-1.16,-2.65l-0.68,-0.27l-1.75,2.44l-4.88,-0.95l0,0l0,-0.81l-0.22,0.67l0,0l-1.14,-0.73l-1.33,0.57l0,0l0.04,-2.98l-1.09,-2.71l0.49,-2.51l2.38,-1.49l-0.27,-2.24l1.2,-2.13l1.47,0.7l0.04,-2.63l-1.26,-1.24l-0.42,-1.69l0.06,-3.74l0.82,-1.4l3.69,1.16l-2.06,-1.46l-2.34,-3.64l1.39,-1.33l2.09,-0.67l0.87,1l1.28,4.17l0.46,-0.16l-0.98,-6.19l0.41,-2.85l-0.87,-0.19l-1.42,1.12l-1.79,-0.27l-1.7,-1.44l3.03,-3.88l2.54,-0.22l1.79,-1.21l0.58,-4.1l-0.52,0.19l-0.82,3.98l-2.48,1l-1.38,-0.57l-1.84,-3.07l-1.86,-0.63l-1.55,0.52l-0.88,1.39l0.68,2.11l-1.94,1.76l-2.89,-0.27l-1.59,0.59l-3.34,-0.97l0.87,-2.42l1.73,-0.29l0.93,-1.73l-1.01,1.45l-2.12,-0.04l-2.18,-2.17l0.18,-2.58l-1.62,-4.96l-0.31,-2.11l3.54,-8.55l-0.51,-1.71L507.77,371.91z"/>
		<path id="CL-ML" title="Maule" class="land" d="M546.63,303.35L545.87,301.67L545.05,301.47L543.09,304.4L542.51,304.32L539.28,301.99L536.68,300.95L535.79,299.39L533.07,299.29L531.43,297.14L530.33,299.27L528.58,299.22L525.5,297.68L523.12,295.01L521.53,294.3L521.53,294.3L524.23,291.54L523.42,287.55L525.31,286.01L526.93,281.84L529.35,279.71L529.97,275.73L531.69,272.21L531.69,272.21L533.68,274.31L537.09,275.55L541.43,276.08L541.32,275.11L542.5,274.09L545.43,273.89L549.96,275.22L552.44,277.23L555.97,277.54L555.97,277.54L555.67,280.52L553.4,281.23L553.02,282.23L555.08,283.91L555.13,288.62L556.2,291.69L555.23,293.12L555.45,296.31L554.85,297.64L552.71,297.88L551.06,299.74L551.03,302.27L547.53,303.54z"/>
		<path id="CL-AP" title="Arica y Parinacota" class="land" d="M575.98,21.14L573.83,21.14L572.44,22.53L572.16,24.2L569.94,24.48L567.71,22.81L563.81,22.81L559.36,25.87L557.07,25.98L557.07,25.98L556.11,16.79L556.65,13.86L555.32,12.53L559.2,12.12L561.68,11.05L564.29,7.13L563.22,3.62L563.44,2.61L563.72,2.18L565.58,2.35L568.2,0L568.38,1.89L570.65,4.34L571.17,7.04L574.29,7.92L573.19,9.58L574.02,10.74L574.98,14.54L574.96,17.15L576.27,20.5z"/>
		<path id="CL-LR" title="Los Ríos" class="land" d="M534.95,376.79L530.13,376.72L527.35,380.34L524.57,379.22L520.11,375.6L518.72,373.1L516.5,372.27L514.27,373.94L512.88,373.66L512.04,372.27L507.77,371.91L507.77,371.91L508.07,370.17L509.03,369.01L508.54,366.13L513.04,364.24L513.01,362.06L515.23,356.19L514.92,355.62L514.92,355.62L516.6,355.85L518.4,353.88L520.46,353.84L522.13,356.63L524.88,356.55L528.18,357.69L530.95,356.08L533.6,356.21L535.6,357.58L536.86,357.65L537.16,358.95L537.16,358.95L536.83,361.9L537.85,366.01L537.38,367.8L535.61,369.05L535.23,370.71L536.63,372.53L536.87,372.1L537.35,372.43L537.42,373.13L536.68,374.78L535.77,374.51z"/>
	</g>
</svg>